<svg width="28" height="25" viewBox="0 0 28 25" fill="none" xmlns="http://www.w3.org/2000/svg">
<path d="M13.5926 6.60156C13.5926 9.7726 11.509 12.1942 9.09995 12.1942C6.6909 12.1942 4.60728 9.7726 4.60728 6.60156C4.60728 3.43052 6.6909 1.00889 9.09995 1.00889C11.509 1.00889 13.5926 3.43052 13.5926 6.60156ZM9.09995 11.2946C11.3322 11.2946 13.0073 9.11372 13.0073 6.60156C13.0073 4.0894 11.3322 1.90852 9.09995 1.90852C6.86772 1.90852 5.19262 4.0894 5.19262 6.60156C5.19262 9.11372 6.86772 11.2946 9.09995 11.2946Z" fill="white" stroke="#000000" stroke-width="0.814658"/>
<path d="M27.5927 20.5444V24.1942H0.407329V19.8015C0.407329 18.2283 1.72146 16.9591 3.58822 16.0574C5.42904 15.1684 7.64355 14.7231 9.1 14.7231C10.0634 14.7231 11.3684 14.9184 12.6827 15.3147C13.9983 15.7113 15.2909 16.2997 16.248 17.0654L16.4206 17.2035L16.6305 17.134C18.034 16.6693 19.5721 16.4374 20.65 16.4374C21.897 16.4374 23.5847 16.7476 24.9692 17.3707C25.6593 17.6814 26.296 18.0792 26.7675 18.5781L26.7675 18.5781C27.2389 19.0769 27.5927 19.7309 27.5927 20.5444ZM1.63337 18.4017L1.63336 18.4018C1.14654 18.9435 0.992671 19.4088 0.992671 19.8015V22.8872V23.2946H1.4H16.8H17.2073V22.8872V19.8015C17.2073 19.4088 17.0534 18.9435 16.5666 18.4018L16.5666 18.4017C16.0767 17.8566 15.3451 17.3498 14.4524 16.9186L14.4524 16.9186C12.6694 16.0575 10.5085 15.6228 9.1 15.6228C7.69148 15.6228 5.53058 16.0575 3.74763 16.9186L3.74761 16.9186C2.85488 17.3498 2.12331 17.8566 1.63337 18.4017ZM17.6473 17.7517L17.1266 17.8835L17.3939 18.3493C17.6504 18.7961 17.7927 19.2786 17.7927 19.8015V22.8872V23.2946H18.2H26.6H27.0073V22.8872V20.5444C27.0073 20.1436 26.8381 19.7324 26.4442 19.3157C26.0522 18.9009 25.4863 18.5365 24.8206 18.2368L24.6534 18.6083L24.8206 18.2368C23.4933 17.6395 21.856 17.337 20.65 17.337C19.8292 17.337 18.7329 17.4768 17.6473 17.7517Z" fill="white" stroke="#000000" stroke-width="0.814658"/>
<path fill-rule="evenodd" clip-rule="evenodd" d="M24.5 9.60161C24.5 12.2062 22.7771 14.3159 20.65 14.3159C18.523 14.3159 16.8 12.2062 16.8 9.60161C16.8 6.99693 18.523 4.88733 20.65 4.88733C22.7771 4.88733 24.5 6.99693 24.5 9.60161ZM20.65 12.6016C22.004 12.6016 23.1 11.2595 23.1 9.60161C23.1 7.94373 22.004 6.60161 20.65 6.60161C19.2961 6.60161 18.2 7.94373 18.2 9.60161C18.2 11.2595 19.2961 12.6016 20.65 12.6016Z"  fill="#000000"/>
</svg>
