<svg width="24" height="25" viewBox="0 0 24 25" fill="none" xmlns="http://www.w3.org/2000/svg">
<path d="M6 2.60156H14L20 8.60156V20.6016C20 21.132 19.7893 21.6407 19.4142 22.0158C19.0391 22.3908 18.5304 22.6016 18 22.6016H6C5.46957 22.6016 4.96086 22.3908 4.58579 22.0158C4.21071 21.6407 4 21.132 4 20.6016V4.60156C4 4.07113 4.21071 3.56242 4.58579 3.18735C4.96086 2.81228 5.46957 2.60156 6 2.60156Z" stroke="#000000" stroke-width="2" stroke-linecap="round" stroke-linejoin="round"/>
<path d="M14 2.60156V8.60156H20" stroke="#F2F2F2" stroke-width="2" stroke-linecap="round" stroke-linejoin="round"/>
<path d="M16 13.6016H8" stroke="#000000" stroke-width="2" stroke-linecap="round" stroke-linejoin="round"/>
<path d="M16 17.6016H8" stroke="#000000" stroke-width="2" stroke-linecap="round" stroke-linejoin="round"/>
<path d="M10 9.60156H9H8" stroke="#000000" stroke-width="2" stroke-linecap="round" stroke-linejoin="round"/>
</svg>
