<svg width="16" height="21" viewBox="0 0 16 21" fill="none" xmlns="http://www.w3.org/2000/svg">
<path d="M12 0.101593C12.1326 0.101593 12.2598 0.154271 12.3536 0.24804C12.4473 0.341808 12.5 0.468985 12.5 0.601593V1.10159H14C14.3729 1.10161 14.7324 1.24051 15.0084 1.49121C15.2844 1.74191 15.4572 2.08643 15.493 2.45759L15.5 2.60159V18.6016C15.5 18.9745 15.3611 19.334 15.1104 19.61C14.8597 19.886 14.5152 20.0588 14.144 20.0946L14 20.1016H2C1.62712 20.1016 1.26761 19.9627 0.991581 19.712C0.715553 19.4613 0.542797 19.1168 0.507 18.7456L0.5 18.6016V2.60159C0.500018 2.22871 0.63892 1.8692 0.889619 1.59317C1.14032 1.31715 1.48484 1.14439 1.856 1.10859L2 1.10159H3.5V0.601593C3.49996 0.484568 3.54097 0.371236 3.61589 0.281334C3.69081 0.191433 3.79489 0.130658 3.91 0.109593L4 0.101593H12ZM3.5 2.10159H2C1.88297 2.10155 1.76964 2.14256 1.67974 2.21748C1.58984 2.2924 1.52906 2.39648 1.508 2.51159L1.5 2.60159V18.6016C1.49996 18.7186 1.54097 18.832 1.61589 18.9219C1.69081 19.0118 1.79489 19.0725 1.91 19.0936L2 19.1016H14C14.117 19.1016 14.2304 19.0606 14.3203 18.9857C14.4102 18.9108 14.4709 18.8067 14.492 18.6916L14.5 18.6016V2.60159C14.5 2.48457 14.459 2.37124 14.3841 2.28133C14.3092 2.19143 14.2051 2.13066 14.09 2.10959L14 2.10159H12.5V2.60159C12.5 2.71862 12.459 2.83195 12.3841 2.92185C12.3092 3.01175 12.2051 3.07253 12.09 3.09359L12 3.10159H4C3.86739 3.10159 3.74021 3.04891 3.64645 2.95515C3.55268 2.86138 3.5 2.7342 3.5 2.60159V2.10159ZM12.5 14.6016C12.6326 14.6016 12.7598 14.6543 12.8536 14.748C12.9473 14.8418 13 14.969 13 15.1016C13 15.2342 12.9473 15.3614 12.8536 15.4551C12.7598 15.5489 12.6326 15.6016 12.5 15.6016H3.5C3.36739 15.6016 3.24021 15.5489 3.14645 15.4551C3.05268 15.3614 3 15.2342 3 15.1016C3 14.969 3.05268 14.8418 3.14645 14.748C3.24021 14.6543 3.36739 14.6016 3.5 14.6016H12.5ZM12.5 10.6016C12.6326 10.6016 12.7598 10.6543 12.8536 10.748C12.9473 10.8418 13 10.969 13 11.1016C13 11.2342 12.9473 11.3614 12.8536 11.4551C12.7598 11.5489 12.6326 11.6016 12.5 11.6016H3.5C3.36739 11.6016 3.24021 11.5489 3.14645 11.4551C3.05268 11.3614 3 11.2342 3 11.1016C3 10.969 3.05268 10.8418 3.14645 10.748C3.24021 10.6543 3.36739 10.6016 3.5 10.6016H12.5ZM12.5 6.60159C12.6326 6.60159 12.7598 6.65427 12.8536 6.74804C12.9473 6.84181 13 6.96898 13 7.10159C13 7.2342 12.9473 7.36138 12.8536 7.45515C12.7598 7.54891 12.6326 7.60159 12.5 7.60159H3.5C3.36739 7.60159 3.24021 7.54891 3.14645 7.45515C3.05268 7.36138 3 7.2342 3 7.10159C3 6.96898 3.05268 6.84181 3.14645 6.74804C3.24021 6.65427 3.36739 6.60159 3.5 6.60159H12.5ZM11.5 1.10159H4.5V2.10159H11.5V1.10159Z" fill="black"/>
</svg>
