<svg width="180" height="60" viewBox="0 0 220 60" fill="none" xmlns="http://www.w3.org/2000/svg">
<g clip-path="url(#clip0_4_573)">
<path d="M33.3953 18.3047C40.3336 18.3047 46.3499 22.2603 49.3098 28.0399C49.6218 28.6491 46.952 31.3329 46.4998 31.857C29.7561 51.2451 29.2057 39.1354 22.4943 33.9431C22.0903 33.6302 16.0661 31.7685 16.2037 31.2829C18.3319 23.7924 25.2237 18.3047 33.3953 18.3047Z" fill="url(#paint0_linear_4_573)" stroke="#F07C00" stroke-width="0.709"/>
<path fill-rule="evenodd" clip-rule="evenodd" d="M1.06836 31.2452C6.81904 29.3319 12.7205 27.337 20.1628 29.4239C25.2903 30.8613 29.2871 33.1797 32.4845 36.1001C47.3613 18.0864 106.057 7.18198 131.755 12.6022C92.7698 10.5214 45.4303 21.0578 32.4845 50.7464C30.2547 40.21 16.9171 29.2512 1.06836 31.2452Z" fill="white"/>
<path fill-rule="evenodd" clip-rule="evenodd" d="M0.979926 30.9788L1.09825 30.9394C6.85244 29.0251 12.7661 27.0565 20.2391 29.1531C22.8248 29.878 25.1256 30.8254 27.1836 31.9588C29.0776 33.0002 30.8469 34.2537 32.4575 35.6952C39.6219 27.2537 56.3025 20.3917 74.6405 16.0513C95.3494 11.1499 118.193 9.45389 131.812 12.3262C131.885 12.3381 131.951 12.3783 131.994 12.4379C132.038 12.4976 132.056 12.5719 132.045 12.645C132.034 12.7181 131.995 12.7839 131.936 12.8284C131.877 12.8729 131.803 12.8924 131.73 12.8827C110.532 11.7521 86.8641 14.357 67.6224 21.7502C51.5703 27.9181 38.6034 37.4176 32.7423 50.8586C32.7184 50.9131 32.6778 50.9587 32.6264 50.9887C32.5749 51.0187 32.5153 51.0316 32.4561 51.0256C32.3968 51.0196 32.341 50.9949 32.2967 50.9551C32.2524 50.9153 32.2218 50.8625 32.2094 50.8042C31.0393 45.2762 26.762 39.6246 20.6555 35.8337C15.2685 32.4908 8.45817 30.5984 1.10264 31.5258C1.03236 31.5366 0.960589 31.5204 0.90183 31.4804C0.84307 31.4403 0.801712 31.3795 0.786122 31.3101C0.770532 31.2407 0.781874 31.168 0.817853 31.1067C0.853832 31.0453 0.911762 31 0.979926 30.9797V30.9788ZM20.0875 29.6948C13.7066 27.9058 8.45204 29.1575 3.44638 30.7597C10.0122 30.4582 16.0591 32.3181 20.9535 35.356C26.8917 39.0417 31.1383 44.4672 32.567 49.876C38.6455 36.6831 51.5387 27.3291 67.4217 21.2261C85.3767 14.3272 107.158 11.5811 127.217 12.1368C113.477 10.4066 93.2756 12.2201 74.7676 16.6008C56.3787 20.9535 39.6815 27.8331 32.7064 36.2737L32.6932 36.2895C32.6428 36.3446 32.5727 36.3774 32.4981 36.3809C32.4235 36.3843 32.3506 36.3581 32.2953 36.3079C30.6603 34.8141 28.8534 33.5201 26.9128 32.4531C24.8907 31.3391 22.6285 30.4082 20.0866 29.6948H20.0875ZM32.7064 36.2737L32.702 36.279L32.7064 36.2737Z" fill="#6EA0D2"/>
<path d="M147.161 45.2323C146.963 45.4094 146.736 45.5496 146.531 45.7161C146.325 45.8827 146.12 46.0589 145.9 46.2289L143.173 48.3412C142.755 48.6638 142.395 48.946 142.073 49.1616C141.783 49.3565 141.484 49.5378 141.178 49.7051C140.924 49.8426 140.659 49.9599 140.386 50.0557C140.132 50.1433 139.877 50.2029 139.624 50.2467C139.428 50.2809 139.33 50.3931 139.33 50.5693C139.33 50.6867 139.389 50.7446 139.506 50.7446C139.557 50.7465 139.607 50.7366 139.653 50.7157H139.711C140.11 50.7157 140.445 50.5491 140.738 50.4527C141.031 50.3545 141.379 50.1836 141.779 49.9391C142.18 49.6937 142.693 49.3326 143.319 48.854C143.945 48.3745 144.786 47.7251 145.841 46.9038C145.45 47.5296 145.196 48.0134 145.078 48.3553C144.962 48.6971 144.903 49.0538 144.903 49.4255C144.903 49.8751 145.04 50.2424 145.313 50.5255C145.445 50.6642 145.604 50.7737 145.781 50.8469C145.958 50.9202 146.148 50.9555 146.34 50.9506C147.512 50.9506 148.999 49.9049 150.797 47.8127C152.225 46.1518 152.938 44.8703 152.938 43.971C152.938 43.6581 152.85 43.4083 152.674 43.2234C152.499 43.0376 152.264 42.9447 151.97 42.9447C151.743 42.9431 151.519 42.9879 151.31 43.0761C151.105 43.1638 150.836 43.3259 150.504 43.56C150.368 43.4632 150.226 43.3754 150.079 43.297C149.932 43.2181 149.81 43.1787 149.712 43.1787C149.614 43.1787 149.477 43.2427 149.301 43.3698C149.126 43.4969 148.869 43.7055 148.539 44.0008L147.161 45.2323ZM150.68 46.9625C150.054 46.7863 149.741 46.4542 149.741 45.9651C149.741 45.7109 149.81 45.4374 149.947 45.1438C150.084 44.851 150.255 44.5767 150.46 44.3225C150.665 44.0683 150.895 43.8632 151.149 43.7072C151.403 43.5503 151.638 43.4723 151.853 43.4723C152.166 43.4723 152.322 43.6581 152.322 44.0298C152.322 44.2051 152.278 44.4154 152.19 44.6608C152.102 44.9045 151.985 45.1587 151.839 45.4225C151.681 45.703 151.504 45.9725 151.31 46.2289C151.118 46.488 150.907 46.7332 150.68 46.9625ZM149.272 45.1736C149.198 45.4011 149.159 45.6383 149.155 45.8774C149.155 46.3069 149.248 46.64 149.434 46.874C149.619 47.1089 149.937 47.2851 150.386 47.4025C149.526 48.3605 148.847 49.0302 148.348 49.4106C147.85 49.7918 147.405 49.9829 147.014 49.9829C146.584 49.9829 146.369 49.7577 146.369 49.308C146.369 48.6042 146.811 47.7277 147.718 46.6987C147.828 46.5742 147.928 46.4778 147.996 46.3902C148.065 46.3025 148.148 46.2096 148.246 46.1114C148.371 45.9871 148.498 45.865 148.627 45.7451C148.783 45.5987 148.999 45.4076 149.272 45.1736ZM165.106 37.8706C164.203 38.8453 163.444 39.6745 162.819 40.3494L161.191 42.1085C160.409 42.9552 159.637 43.8107 158.874 44.6749C158.512 45.0851 158.121 45.5347 157.702 46.0238L156.191 47.7838C155.904 48.1176 155.62 48.4548 155.34 48.7953C155.126 49.0582 154.959 49.2738 154.842 49.4404C154.747 49.5666 154.668 49.7044 154.608 49.8506C154.568 49.9587 154.548 50.0729 154.549 50.188C154.549 50.3449 154.607 50.4773 154.725 50.5842C154.845 50.6928 155.003 50.7506 155.165 50.7455C155.419 50.7455 155.675 50.5544 155.985 50.2178L158.39 47.6076C158.672 47.3017 158.836 47.1036 158.904 47.0353C159 46.9362 159.093 46.8336 159.182 46.7276C159.108 47.0028 159.049 47.2819 159.007 47.5638C158.967 47.8308 158.947 48.1003 158.948 48.3702C158.948 49.2502 159.221 49.9636 159.769 50.5106C160.316 51.0584 161.03 51.3318 161.91 51.3318C162.868 51.3318 163.948 51.1075 165.15 50.6569C166.353 50.2073 167.57 49.5964 168.801 48.8251C170.075 48.0209 171.277 47.1083 172.394 46.0974C173.526 45.0859 174.562 43.9715 175.488 42.7685C176.369 41.6159 176.998 40.5834 177.38 39.6745C177.76 38.7694 177.954 37.7971 177.951 36.8153C177.951 35.6233 177.469 34.483 176.485 33.4137C176.12 33.0166 175.65 32.7388 175.092 32.5635C174.535 32.3864 173.826 32.2988 172.966 32.2988H172.555C172.36 32.2998 172.164 32.3098 171.969 32.3286C172.125 32.0349 172.203 31.8491 172.203 31.7711C172.202 31.6488 172.161 31.5303 172.086 31.4337C172.008 31.3259 171.92 31.2724 171.822 31.2724C171.725 31.2724 171.602 31.3215 171.455 31.4188C171.309 31.5169 171.089 31.7124 170.795 32.006L170.532 32.269C170.418 32.3804 170.301 32.4882 170.18 32.5924C169.515 32.7099 168.929 32.822 168.42 32.929C167.912 33.0368 167.428 33.1498 166.969 33.2664C166.509 33.3839 166.069 33.5057 165.649 33.6337C165.191 33.7754 164.736 33.9267 164.285 34.0877C163.329 34.4243 162.53 34.7433 161.895 35.0553C161.259 35.3683 160.942 35.6032 160.942 35.7592C160.942 35.8573 161.006 35.9502 161.133 36.0379C161.259 36.1255 161.411 36.1694 161.587 36.1694C161.802 36.1694 162.042 36.1308 162.306 36.0528C162.57 35.9739 162.989 35.8363 163.552 35.6128C164.295 35.3116 165.053 35.052 165.825 34.8353C166.691 34.6055 167.566 34.4148 168.449 34.2639L165.106 37.8706ZM170.942 33.8826C171.908 33.6939 172.89 33.5956 173.875 33.589C175.928 33.589 176.955 34.4102 176.955 36.0519C176.955 37.343 176.407 38.7997 175.312 40.4221C174.217 42.0454 172.648 43.723 170.59 45.4374C166.921 48.4938 163.894 50.0127 161.528 50.0127C160.824 50.0127 160.312 49.8602 159.989 49.5569C159.667 49.2546 159.505 48.7707 159.505 48.1063C159.505 47.3438 159.631 46.5988 160.003 45.9361C160.161 45.6557 160.409 45.4173 160.634 45.1438C160.859 44.8703 161.143 44.5329 161.484 44.1323C161.826 43.7318 162.251 43.2576 162.76 42.7098C163.268 42.1628 163.894 41.4827 164.637 40.6719C165.38 39.8603 166.269 38.9014 167.306 37.797C168.524 36.4974 169.736 35.1926 170.942 33.8826ZM177.094 50.7744C177.255 50.7744 177.348 50.706 177.388 50.6867C177.426 50.6675 177.445 50.6079 177.445 50.5114C177.445 50.4133 177.426 50.3493 177.388 50.3204C177.348 50.2914 177.25 50.2722 177.094 50.2765C176.487 50.2914 176.062 50.2222 175.818 50.0565C175.574 49.89 175.451 49.592 175.451 49.1625C175.451 48.9662 175.466 48.7997 175.496 48.6629C175.525 48.5262 175.569 48.3702 175.628 48.194C176.058 48.0371 176.464 47.8758 176.845 47.7102C177.226 47.5436 177.666 47.3157 178.179 47.0502C179.406 46.4165 180.305 45.838 180.862 45.2902C181.419 44.7432 181.698 44.1954 181.698 43.6485C181.698 43.0227 181.327 42.7106 180.584 42.7106C179.685 42.7106 178.417 43.3268 176.8 44.5863C176.11 45.1254 175.573 45.653 175.173 46.1412C174.773 46.6295 174.415 47.2263 174.102 47.9293C172.163 48.4464 172.504 46.3586 170.557 46.7487C170.362 46.7872 170.263 46.895 170.263 47.0703C170.263 47.1878 170.322 47.2465 170.44 47.2465H170.498C170.529 47.2431 170.559 47.2332 170.586 47.2176H170.645C172.56 47.2176 172.103 48.9758 173.926 48.4289C173.894 48.569 173.869 48.711 173.854 48.854C173.843 48.9758 173.838 49.0981 173.839 49.2204C173.839 50.316 174.464 50.8629 175.715 50.8629C175.931 50.8629 176.16 50.8577 176.405 50.848C176.649 50.8393 176.845 50.7744 177.006 50.7744H177.094ZM175.833 47.6076C176.009 47.158 176.288 46.6733 176.669 46.1553C177.04 45.6487 177.452 45.1732 177.9 44.7336C178.34 44.3032 178.771 43.9465 179.191 43.6634C179.611 43.3794 179.958 43.2374 180.232 43.2374C180.427 43.2374 180.525 43.3549 180.525 43.5898C180.525 43.8045 180.393 44.0789 180.129 44.411C179.815 44.7942 179.467 45.1475 179.088 45.4663C178.659 45.838 178.159 46.2149 177.593 46.5953C177.031 46.9737 176.442 47.312 175.833 47.6076ZM185.188 50.2757C185.638 49.8067 186.103 49.2247 186.581 48.5314C187.051 47.8514 187.491 47.1517 187.901 46.434C188.302 45.7302 188.634 45.0807 188.898 44.4838C189.162 43.8878 189.294 43.4434 189.294 43.1498C189.294 42.9543 189.186 42.7589 188.971 42.5625C188.756 42.3679 188.541 42.2698 188.326 42.2698C188.189 42.2698 187.806 42.573 187.153 43.1498L186.39 43.8247L184.836 45.1438C184.508 45.4216 184.181 45.682 183.868 45.9361C183.556 46.1903 183.24 46.4419 182.93 46.6987C182.25 47.267 181.56 47.8243 180.862 48.3702C180.305 48.7997 179.826 49.1424 179.425 49.3957C179.025 49.6498 178.667 49.8418 178.355 49.968C178.033 50.0954 177.699 50.1889 177.358 50.2467C177.162 50.2818 177.065 50.3931 177.065 50.5693C177.065 50.6867 177.124 50.7446 177.24 50.7446C177.291 50.7464 177.341 50.7365 177.388 50.7157H177.445C177.761 50.7157 178.072 50.6035 178.384 50.4965C178.721 50.3775 179.045 50.2248 179.352 50.0408C179.725 49.8192 180.087 49.5796 180.437 49.3229C180.828 49.0398 181.268 48.6918 181.757 48.2816C181.757 49.0249 181.918 49.6218 182.241 50.0706C182.563 50.5202 183.008 50.7455 183.575 50.7455C183.673 50.7455 183.766 50.7402 183.853 50.7306C183.941 50.7218 184.083 50.6964 184.279 50.6578C184.572 50.7358 184.885 50.7744 185.217 50.7744C185.608 50.7744 185.804 50.6867 185.804 50.5114C185.804 50.3537 185.696 50.2765 185.481 50.2765H185.188V50.2757ZM183.633 49.9829C183.593 50.0125 183.549 50.0372 183.502 50.0565C183.459 50.0677 183.414 50.0724 183.37 50.0706C183.096 50.0706 182.846 49.904 182.622 49.5727C182.402 49.2539 182.284 48.8753 182.285 48.4876C182.285 48.1747 182.392 48.0178 182.607 48.0178C182.705 48.0178 182.803 48.0722 182.901 48.1791C182.998 48.286 183.079 48.4385 183.135 48.634C183.215 48.9066 183.282 49.1134 183.341 49.2502C183.399 49.386 183.443 49.4991 183.472 49.5867C183.501 49.6744 183.527 49.7436 183.546 49.7927C183.565 49.8409 183.595 49.9049 183.633 49.9829ZM183.956 49.3378C183.681 48.6953 183.55 48.2229 183.385 47.988C183.219 47.754 182.979 47.598 182.666 47.5191C183.563 46.788 184.462 46.0599 185.364 45.3349C186.107 44.7389 186.707 44.2585 187.153 43.8825C187.332 43.7318 187.451 43.6187 187.52 43.56C187.609 43.4861 187.702 43.4176 187.799 43.3549C187.681 43.8045 187.48 44.3234 187.197 44.9089C186.608 46.1115 185.905 47.2555 185.1 48.3255C184.71 48.8435 184.357 49.2502 184.045 49.5438L183.956 49.3378ZM193.106 50.7455C193.282 50.7455 193.37 50.6666 193.37 50.5106C193.37 50.3545 193.282 50.2765 193.106 50.2765C192.794 50.2765 192.588 50.252 192.49 50.2029C192.392 50.1538 192.344 50.0513 192.344 49.8944C192.344 49.8164 192.378 49.7086 192.447 49.5727C192.514 49.436 192.632 49.2502 192.798 49.0153C192.965 48.7804 193.194 48.4824 193.488 48.1212C193.853 47.6715 194.225 47.2265 194.602 46.7863C195.168 46.122 195.609 45.6031 195.922 45.2323C196.234 44.8607 196.47 44.5714 196.626 44.3663C196.782 44.1621 196.875 44.0096 196.904 43.9123C196.933 43.815 196.948 43.7072 196.948 43.5898C196.948 43.4145 196.884 43.2663 196.757 43.1498C196.644 43.0384 196.491 42.9756 196.332 42.9745C196.059 42.9745 195.824 43.0227 195.628 43.12C195.394 43.2467 195.185 43.4161 195.012 43.6196C194.835 43.8136 194.65 43.9994 194.456 44.1761C194.201 44.411 193.844 44.7143 193.384 45.0851C192.926 45.4567 192.358 45.9116 191.684 46.4489C191.01 46.9862 190.199 47.6138 189.264 48.3404C188.44 48.9811 187.783 49.4447 187.285 49.7191C186.797 49.9852 186.266 50.1637 185.716 50.2467C185.52 50.2774 185.422 50.3931 185.422 50.5693C185.422 50.6867 185.481 50.7446 185.599 50.7446H185.657C185.688 50.7412 185.718 50.7313 185.745 50.7157H185.804C186.1 50.7157 186.391 50.6079 186.684 50.5106C187.011 50.397 187.326 50.2496 187.622 50.0706C188.019 49.8328 188.405 49.5784 188.78 49.308C189.302 48.9289 189.816 48.5379 190.32 48.1353C191.098 47.5243 191.821 46.9573 192.476 46.42C193.13 45.8818 193.81 45.32 194.514 44.7336C193.999 45.3444 193.495 45.9651 193.003 46.5953C192.604 47.1133 192.28 47.5682 192.036 47.9591C191.792 48.35 191.615 48.6927 191.508 48.9855C191.409 49.2382 191.354 49.5063 191.347 49.7778C191.347 50.0706 191.46 50.3107 191.684 50.4965C191.908 50.6806 192.187 50.7744 192.519 50.7744H192.813C192.892 50.7801 192.972 50.7703 193.048 50.7455H193.106ZM199.939 37.783C199.705 37.783 199.47 37.8268 199.235 37.9145C199.001 38.0021 198.791 38.1161 198.605 38.2519C198.427 38.3808 198.273 38.5398 198.15 38.7217C198.033 38.897 197.975 39.0732 197.975 39.2494C197.975 39.7183 198.199 39.9532 198.649 39.9532C198.903 39.9532 199.147 39.9138 199.382 39.8357C199.612 39.76 199.829 39.6514 200.027 39.5132C200.206 39.3921 200.364 39.2436 200.496 39.0732C200.609 38.9312 200.671 38.7557 200.673 38.5745C200.673 38.3404 200.604 38.1494 200.467 38.003C200.4 37.9306 200.318 37.8735 200.227 37.8356C200.136 37.7976 200.038 37.7797 199.939 37.783ZM203.634 50.7744L203.723 50.7455C203.918 50.7455 204.015 50.6666 204.015 50.5106C204.015 50.3545 203.956 50.2765 203.839 50.2765H203.752L203.429 50.3055H203.194C203.292 50.1687 203.361 50.0802 203.4 50.0416C203.439 50.0031 203.514 49.9014 203.634 49.748C203.728 49.6288 203.816 49.528 203.884 49.4404C203.951 49.3527 204.05 49.23 204.177 49.074C204.304 48.9171 204.476 48.7024 204.69 48.4289C204.905 48.1554 205.216 47.7619 205.628 47.2553C207.19 45.3384 207.975 44.2051 207.975 43.8545C207.975 43.7968 207.963 43.7397 207.941 43.6866C207.918 43.6335 207.885 43.5857 207.843 43.5459C207.808 43.5064 207.765 43.4744 207.717 43.4519C207.669 43.4293 207.617 43.4166 207.564 43.4145C207.452 43.4197 207.344 43.4605 207.256 43.531C207.089 43.6604 206.936 43.808 206.802 43.971L206.626 44.1761C206.586 43.7072 206.478 43.3645 206.303 43.1498C206.128 42.935 205.844 42.8272 205.453 42.8272C204.846 42.8272 204.07 43.0814 203.121 43.5898C202.173 44.0981 201.142 44.823 200.027 45.76C199.794 45.9563 199.552 46.1509 199.309 46.3463C199.065 46.5418 198.82 46.7548 198.561 46.9625L197.681 47.6663L196.801 48.3412C195.974 48.9758 195.315 49.4456 194.807 49.7191C194.322 49.9809 193.797 50.1592 193.253 50.2467C193.057 50.2783 192.959 50.3931 192.959 50.5693C192.959 50.6867 193.018 50.7446 193.136 50.7446C193.186 50.7465 193.236 50.7366 193.282 50.7157H193.341C193.697 50.7157 194.016 50.5789 194.308 50.4816C194.653 50.3588 194.983 50.1964 195.291 49.9978C195.652 49.7726 196.098 49.464 196.626 49.074C197.153 48.6831 197.827 48.1651 198.649 47.5191C198.336 48.1642 198.18 48.7514 198.18 49.2791C198.18 49.6507 198.277 49.954 198.473 50.188C198.668 50.4229 198.913 50.5404 199.206 50.5404C199.441 50.5404 199.68 50.5009 199.925 50.4229C200.169 50.3449 200.443 50.2126 200.746 50.0267C201.114 49.7949 201.466 49.5402 201.801 49.2642C202.292 48.8669 202.776 48.4614 203.253 48.0476C203.121 48.2096 202.994 48.3757 202.872 48.5455C202.705 48.7739 202.534 48.9989 202.359 49.2204C202.173 49.4544 201.982 49.6893 201.787 49.9242C201.591 50.1591 201.415 50.3642 201.259 50.5404C200.653 50.6964 200.105 50.848 199.616 50.9944C199.128 51.1416 198.664 51.2977 198.224 51.4642C197.784 51.6307 197.363 51.8157 196.962 52.0208C196.562 52.2259 196.151 52.438 195.746 52.6808C195.092 53.077 194.474 53.5286 193.898 54.0306C193.365 54.4839 192.875 54.9844 192.432 55.5259C192.053 55.9853 191.728 56.487 191.464 57.0212C191.229 57.5102 191.112 57.959 191.112 58.371C191.112 58.7216 191.23 59.0012 191.464 59.2063C191.698 59.4114 192.022 59.5139 192.432 59.5139C193.175 59.5139 193.976 59.2501 194.837 58.7224C195.697 58.1939 196.739 57.32 197.975 56.1122C198.439 55.6582 198.859 55.2463 199.221 54.8659C199.582 54.4846 199.94 54.0981 200.291 53.7071C200.643 53.3162 201.01 52.8911 201.391 52.4318C201.773 51.9726 202.207 51.4396 202.696 50.8331C202.833 50.8138 202.93 50.8042 202.989 50.8042C203.048 50.8042 203.157 50.8182 203.312 50.8042L203.634 50.7744ZM205.599 43.4434C205.932 43.4434 206.098 43.6099 206.098 43.9412C206.098 44.8405 204.528 46.4988 201.376 48.8978C201.009 49.1774 200.673 49.3913 200.379 49.5578C200.086 49.7243 199.88 49.8067 199.764 49.8067C199.568 49.8067 199.47 49.6893 199.47 49.4553C199.47 49.1222 199.69 48.6577 200.13 48.0616C200.569 47.4656 201.169 46.8126 201.934 46.1114C202.83 45.2884 203.611 44.6407 204.265 44.1612C204.919 43.6827 205.364 43.4425 205.599 43.4425V43.4434ZM200.731 51.2442C199.876 52.2897 198.98 53.3022 198.047 54.2795C197.247 55.1215 196.415 55.9334 195.555 56.7135C194.782 57.4077 194.094 57.9494 193.487 58.3412C192.881 58.7321 192.422 58.9275 192.109 58.9275C191.777 58.9275 191.61 58.7224 191.61 58.3114C191.61 57.7644 191.968 57.0746 192.681 56.2437C193.394 55.4137 194.338 54.553 195.541 53.7071C196.45 53.0673 197.324 52.5677 198.136 52.168C198.963 51.7616 199.834 51.4516 200.731 51.2442ZM212.784 44.7336C212.88 44.653 212.975 44.582 213.063 44.5136C213.15 44.4452 213.244 44.3716 213.341 44.2936C213.068 44.6451 212.833 44.9492 212.638 45.2025C212.442 45.4567 212.21 45.7144 211.964 45.994C211.213 46.8477 210.653 47.5147 210.262 47.974C209.871 48.4333 209.582 48.7804 209.397 49.0153C209.211 49.2493 209.104 49.4114 209.075 49.4991C209.047 49.5792 209.032 49.6632 209.031 49.748C209.031 49.9049 209.094 50.0565 209.221 50.2029C209.348 50.3493 209.48 50.422 209.617 50.422C209.689 50.4185 209.759 50.3987 209.822 50.3642C209.9 50.3256 210.008 50.2467 210.145 50.1293C210.324 49.9713 210.495 49.8049 210.658 49.6306C210.863 49.4158 211.131 49.131 211.465 48.7804C212.018 48.2126 212.6 47.6743 213.209 47.1676C213.879 46.6006 214.568 46.0578 215.277 45.54C215.875 45.0994 216.492 44.6835 217.124 44.2936C217.672 43.9605 218.053 43.7949 218.268 43.7949C218.425 43.7949 218.503 43.8536 218.503 43.9702C218.503 44.1279 218.247 44.4487 217.74 44.9387C217.143 45.5149 216.557 46.1017 215.98 46.6987C215.584 47.1053 215.207 47.5309 214.852 47.974C214.568 48.3351 214.372 48.6542 214.265 48.9267C214.162 49.1784 214.108 49.4472 214.104 49.7191C214.104 50.0513 214.212 50.3151 214.426 50.5106C214.641 50.706 214.925 50.8042 215.277 50.8042C215.726 50.8042 216.015 50.784 216.142 50.7455C216.269 50.706 216.333 50.628 216.333 50.5106C216.333 50.3545 216.235 50.2765 216.039 50.2765C215.531 50.2765 215.277 50.11 215.277 49.7769C215.278 49.6186 215.329 49.4648 215.424 49.3378C215.521 49.2011 215.711 48.9995 215.98 48.7216C216.317 48.3746 216.583 48.0958 216.788 47.9004C216.992 47.7058 217.188 47.5094 217.374 47.314C217.559 47.1185 217.765 46.9082 217.989 46.6829L218.943 45.7302C219.588 45.0851 219.911 44.5083 219.911 44C219.911 43.7265 219.818 43.5012 219.632 43.3251C219.447 43.1498 219.207 43.0621 218.913 43.0621C218.346 43.0621 217.618 43.3259 216.729 43.8536C215.839 44.3812 214.71 45.2323 213.341 46.4042C213.5 46.284 213.622 46.1219 213.694 45.9361C214.085 45.4278 214.407 45.0071 214.661 44.674C214.916 44.3427 215.115 44.064 215.263 43.8387C215.409 43.6143 215.512 43.4434 215.57 43.3259C215.629 43.2085 215.658 43.12 215.658 43.0621C215.658 42.9447 215.576 42.8272 215.409 42.7098C215.242 42.5923 215.081 42.5345 214.925 42.5345C214.69 42.5345 214.49 42.5783 214.324 42.6659C214.158 42.7536 213.954 42.8938 213.752 43.1208C213.622 43.2655 213.361 43.5416 212.931 43.9123C211.805 44.882 210.661 45.8302 209.5 46.7565C208.816 47.3044 208.141 47.8329 207.476 48.3404C207.121 48.6133 206.759 48.8775 206.391 49.1327C206.078 49.3475 205.789 49.528 205.526 49.6753C205.285 49.8108 205.036 49.9282 204.778 50.0267C204.543 50.1144 204.292 50.2064 204.015 50.2467C203.764 50.2836 203.634 50.3738 203.634 50.5693C203.634 50.6867 203.693 50.7446 203.81 50.7446C204.26 50.7446 204.832 50.5693 205.526 50.2178C206.22 49.8655 207.006 49.3457 207.887 48.6629C208.139 48.4666 208.39 48.272 208.635 48.0765C208.879 47.8811 209.144 47.6926 209.412 47.4893C209.71 47.2632 209.998 47.0256 210.291 46.8012C210.585 46.576 210.866 46.3437 211.142 46.1114L212.784 44.7336ZM52.8237 44.5583C52.6081 44.5583 52.4127 44.5863 52.2365 44.5863H51.8561C51.1716 44.5863 50.5799 44.5574 50.0812 44.4987C49.5825 44.44 49.3335 44.3716 49.3335 44.2936C49.3335 44.2542 49.4606 44.2103 49.7148 44.1621C49.969 44.113 50.3065 44.064 50.7263 44.0149C51.219 43.9598 51.7129 43.916 52.2076 43.8834C52.7747 43.844 53.3707 43.8028 53.9965 43.7659L55.4629 43.6783L56.108 43.6485C55.9984 43.7398 55.8859 43.8275 55.7705 43.9114C55.6636 43.9903 55.4822 44.1323 55.228 44.3374C54.9738 44.5425 54.6118 44.851 54.1429 45.2612C53.6739 45.6714 52.9982 46.2377 52.1199 46.9616C51.4345 47.527 50.8735 48.0029 50.4335 48.3842C49.9935 48.7655 49.6465 49.0889 49.3923 49.3527C49.1381 49.6157 48.9567 49.8216 48.8497 49.968C48.7428 50.1144 48.6884 50.2371 48.6884 50.3344C48.6884 50.4326 48.7323 50.5255 48.8199 50.6131C48.9076 50.7008 49.0014 50.7446 49.0986 50.7446C49.2363 50.7446 49.451 50.6377 49.7437 50.4229C50.2161 50.0689 50.6668 49.6869 51.0935 49.2791C51.4959 48.9004 51.885 48.5165 52.2952 48.1651C52.7063 47.8127 53.1463 47.4726 53.5863 47.1089C53.9483 46.8083 54.2901 46.4875 54.6416 46.1851C54.9931 45.8827 55.3594 45.5777 55.7267 45.2612C56.0624 44.972 56.3227 44.738 56.519 44.5723C56.7136 44.4058 56.8758 44.2691 57.0029 44.1612C57.1291 44.0543 57.2422 43.9614 57.3394 43.8825C57.4376 43.8045 57.5454 43.716 57.662 43.6196C58.2285 43.5754 58.7956 43.5409 59.3633 43.5161C60.0428 43.4855 60.7224 43.4563 61.402 43.4285C62.1146 43.3996 62.8394 43.3742 63.5713 43.3549C64.2899 43.3357 65.0087 43.3261 65.7275 43.3259C65.6486 43.4232 65.575 43.5161 65.5075 43.6047C65.4391 43.6923 65.3655 43.7861 65.2875 43.8825C64.5305 44.8162 63.768 45.7453 62.9998 46.6698C62.5354 47.2198 62.0853 47.7819 61.65 48.3553C61.338 48.776 61.1276 49.0793 61.0198 49.2642C60.9129 49.45 60.8594 49.592 60.8594 49.6893C60.8594 49.9049 60.9375 50.1346 61.0935 50.3791C61.2495 50.6228 61.4064 50.7455 61.5624 50.7455C61.7587 50.7455 62.0708 50.4711 62.5011 49.9242L63.1462 49.1029C63.361 48.8294 63.5924 48.5595 63.8211 48.2816C64.5889 47.3482 65.2147 46.5611 65.7126 45.9361C66.2113 45.3103 66.6066 44.8169 66.9002 44.4549C67.1939 44.0929 67.4042 43.8291 67.5313 43.6625C67.6091 43.5562 67.6922 43.4538 67.7802 43.3557C67.9555 43.3356 68.1221 43.3259 68.279 43.3259H69.599C69.7935 43.3259 69.9487 43.3549 70.0679 43.3549H70.3308C70.6052 43.3549 70.7428 43.2576 70.7428 43.0621C70.7462 42.9592 70.7204 42.8574 70.6683 42.7685C70.6201 42.6896 70.5123 42.6265 70.3457 42.5774C70.1205 42.5205 69.8892 42.4911 69.6568 42.4898C69.3641 42.481 68.9732 42.4757 68.4841 42.4757C68.7768 42.1234 69.0608 41.7816 69.3343 41.4485L70.1555 40.4519C70.429 40.1189 70.7025 39.7823 70.9768 39.4396C71.2503 39.0977 71.5535 38.7208 71.8857 38.3106C72.9308 37.0275 73.9671 35.7373 74.9947 34.44C75.5382 33.7581 76.066 33.0638 76.5776 32.3575C76.9107 31.8886 77.1061 31.5608 77.1649 31.3758C77.2236 31.1891 77.2525 30.9893 77.2525 30.7737C77.2525 30.5002 77.1789 30.2653 77.0325 30.0698C76.8861 29.8753 76.7047 29.7771 76.49 29.7771C76.1385 29.7771 75.4487 30.0558 74.4223 30.6124C73.3968 31.1698 72.0356 32.0113 70.3317 33.12C69.1994 33.8532 68.08 34.6059 66.9739 35.3779C65.8288 36.1805 64.6899 36.9919 63.5573 37.8119C62.4231 38.6332 61.3231 39.4597 60.2582 40.2906C59.2482 41.0774 58.246 41.8742 57.2518 42.6808C57.1587 42.6804 57.0657 42.6851 56.9731 42.6949C56.8561 42.7072 56.7389 42.7172 56.6216 42.7247C56.4743 42.7343 56.2885 42.7448 56.0641 42.7536C55.8398 42.7632 55.5409 42.7773 55.1701 42.7974C53.4101 42.8938 51.9288 43.0078 50.7263 43.1349C49.5237 43.262 48.7805 43.3847 48.5123 43.531C48.351 43.6187 48.2143 43.7712 48.0872 43.9561C47.9601 44.142 47.897 44.3032 47.897 44.44C47.897 44.6749 48.1021 44.8458 48.5123 44.9536C48.9225 45.0605 49.6079 45.1149 50.565 45.1149C51.6799 45.1149 52.4819 45.0851 52.9701 45.0272C53.4583 44.9685 53.7029 44.8703 53.7029 44.7336C53.7029 44.6161 53.5758 44.5583 53.3225 44.5583H52.8229H52.8237ZM66.4313 42.4749C65.121 42.5143 63.8457 42.5389 62.6037 42.5485C61.3626 42.5573 60.1355 42.5836 58.9233 42.6221C59.7647 41.9569 60.742 41.204 61.856 40.3634C62.97 39.5228 64.1147 38.6718 65.2875 37.8128C66.4423 36.9654 67.6055 36.1295 68.7768 35.3051C69.8135 34.5751 70.8547 33.8517 71.9006 33.1349C72.6647 32.6069 73.4421 32.0983 74.2321 31.6098C74.8579 31.2286 75.219 31.0375 75.3172 31.0375C75.4145 31.0375 75.4636 31.0866 75.4636 31.1847C75.4636 31.2628 75.2383 31.6002 74.7887 32.1962C74.3399 32.7922 73.7194 33.5898 72.927 34.5864C71.9871 35.7651 71.034 36.9333 70.0679 38.0906C68.8532 39.5505 67.6407 41.0122 66.4304 42.4757L66.4313 42.4749ZM72.9901 44.411C73.2683 44.2986 73.5521 44.2006 73.8403 44.1174C74.1147 44.0385 74.3294 44 74.4854 44C74.6423 44 74.7203 44.0683 74.7203 44.2051C74.7203 44.3427 74.4758 44.6161 73.9867 45.0263C73.1812 45.787 72.4269 46.6001 71.7288 47.4604C71.0057 48.3798 70.6437 49.1713 70.6437 49.8357C70.6437 50.4816 70.9961 50.8042 71.6999 50.8042C72.0321 50.8042 72.2565 50.784 72.3748 50.7455C72.4914 50.706 72.5501 50.628 72.5501 50.5106C72.5501 50.3545 72.4818 50.2765 72.345 50.2765H72.2574C72.1907 50.2972 72.1212 50.307 72.0514 50.3055H71.905C71.6894 50.3055 71.5825 50.2178 71.5825 50.0416C71.5825 49.9435 71.6903 49.7524 71.905 49.4693C72.1198 49.1862 72.4923 48.7611 73.019 48.194C73.5109 47.6735 73.9948 47.1455 74.4705 46.6102C74.8325 46.2 75.1112 45.8529 75.3067 45.5689C75.5022 45.2858 75.6292 45.0518 75.688 44.8651C75.7467 44.6793 75.7756 44.4794 75.7756 44.2647C75.7756 44.0298 75.7029 43.8045 75.5565 43.5898C75.4121 43.3768 75.2149 43.2049 74.9841 43.091C74.8997 43.0373 74.8046 43.0023 74.7054 42.9885C74.5249 42.9756 74.3439 42.9707 74.1629 42.9736C74.2996 42.7396 74.3925 42.5581 74.4416 42.431C74.4863 42.3242 74.5113 42.2102 74.5152 42.0945C74.5152 41.8981 74.4074 41.8008 74.1927 41.8008C74.0752 41.8008 73.9183 41.864 73.7229 41.991C73.5274 42.1181 73.2347 42.3478 72.8429 42.6808C72.5107 42.9543 72.2863 43.1743 72.1688 43.34C72.0514 43.5065 71.9935 43.6774 71.9935 43.8536C71.9935 43.9123 72.0225 44.0981 72.0812 44.411C72.0812 44.411 72.5457 44.8396 72.785 44.6161L72.9901 44.411ZM86.0113 41.1855C86.7739 41.1461 87.3988 41.1119 87.8879 41.0821C88.2403 41.0623 88.5924 41.0378 88.9441 41.0085C89.2955 41.0085 89.4717 40.9305 89.4717 40.7745C89.4717 40.5992 89.2666 40.5106 88.8555 40.5106C88.5628 40.5106 88.1666 40.515 87.6679 40.5247C87.1692 40.5352 86.7151 40.5597 86.3041 40.5983C86.461 40.423 86.6713 40.1583 86.9351 39.8068C87.1981 39.4545 87.4681 39.1126 87.7415 38.7804C87.9957 38.4474 88.1955 38.1739 88.3428 37.9592C88.4892 37.7436 88.6066 37.563 88.6943 37.4157C88.7678 37.3013 88.827 37.1783 88.8704 37.0494C88.9005 36.9445 88.9153 36.8359 88.9143 36.7268C88.9206 36.5902 88.8791 36.4557 88.7968 36.3464C88.7632 36.3004 88.7191 36.2631 88.6682 36.2375C88.6173 36.2119 88.561 36.1987 88.5041 36.1992C88.2692 36.1992 87.9957 36.4051 87.6828 36.8153C86.5976 38.0678 85.5224 39.3288 84.4573 40.5983L83.9437 40.657C83.7771 40.6763 83.5869 40.6912 83.3713 40.7008C83.1167 40.7138 82.8624 40.7334 82.6088 40.7596C82.2577 40.7931 81.9058 40.8177 81.5535 40.8332C81.0451 40.8718 80.6104 40.9059 80.2484 40.9357C79.8864 40.9647 79.5691 40.9989 79.2956 41.0383L78.6505 41.097C78.3376 41.1356 78.1807 41.2241 78.1807 41.3608C78.1807 41.5169 78.3271 41.5957 78.6207 41.5957H79.5884C79.8627 41.5957 80.1756 41.5861 80.5262 41.5659L81.8024 41.4932C82.302 41.4634 82.9506 41.4292 83.7526 41.3898C83.4338 41.7936 83.1112 42.1945 82.7849 42.5923C82.5115 42.9254 82.2626 43.2138 82.0373 43.4574C81.8129 43.7028 81.6026 43.9167 81.4062 44.1025C81.2126 44.287 81.0071 44.4586 80.7909 44.6161C80.1651 45.0851 79.5445 45.5593 78.9284 46.0387C78.3131 46.5173 77.6925 47.0011 77.0667 47.4902C76.5168 47.9295 75.9595 48.3597 75.3952 48.7804C74.9456 49.1134 74.5538 49.3764 74.2216 49.5727C73.8894 49.7682 73.5861 49.9145 73.3127 50.0118C73.026 50.1134 72.7318 50.1919 72.4327 50.2467C72.2372 50.2862 72.1399 50.3931 72.1399 50.5693C72.1399 50.6867 72.1978 50.7446 72.3152 50.7446H72.3739C72.4048 50.7411 72.4347 50.7312 72.4616 50.7157H72.5212C72.8727 50.6771 73.2399 50.5789 73.6203 50.4229C74.0016 50.266 74.4854 49.9926 75.0718 49.6016C75.659 49.2107 76.3918 48.6726 77.2718 47.9889C78.1518 47.3052 79.2755 46.4147 80.6446 45.32C79.9793 46.2973 79.4665 47.172 79.1045 47.9451C78.7426 48.7164 78.562 49.3177 78.562 49.748C78.562 50.4326 78.9915 50.7744 79.8522 50.7744C80.0871 50.7744 80.2484 50.7551 80.336 50.7157C80.377 50.6999 80.4119 50.6716 80.4357 50.6347C80.4595 50.5978 80.4709 50.5544 80.4684 50.5106C80.4684 50.3545 80.3606 50.2765 80.1458 50.2765C79.7163 50.2765 79.5007 50.1494 79.5007 49.8953C79.5007 49.7191 79.6471 49.3816 79.9407 48.8829C80.2335 48.3842 80.6542 47.754 81.2011 46.9914C81.28 46.8941 81.6902 46.3656 82.4335 45.4076C83.5235 44.0062 84.6183 42.6085 85.7177 41.2145L86.0113 41.1847V41.1855ZM110.499 30.7149C109.736 30.7149 108.832 30.8079 107.786 30.9937C106.702 31.1884 105.63 31.443 104.575 31.7562C103.483 32.0778 102.406 32.4499 101.349 32.8711C100.293 33.2918 99.3647 33.7362 98.5627 34.2051C96.0016 35.6514 94.721 37.1475 94.721 38.6928C94.721 39.103 94.8139 39.4641 94.9998 39.777C95.1856 40.0899 95.4985 40.3538 95.9385 40.5694C96.3785 40.7841 96.9596 40.9699 97.6827 41.1259C98.4067 41.2828 99.2963 41.4196 100.352 41.537C101.282 41.6259 102.211 41.7335 103.138 41.8596C103.823 41.9569 104.35 42.0594 104.722 42.1672C105.093 42.275 105.333 42.3925 105.44 42.5196C105.551 42.6558 105.608 42.8279 105.601 43.0034C105.601 43.2961 105.415 43.6783 105.044 44.1472C104.673 44.6161 104.164 45.1245 103.519 45.6723C102.733 46.3073 101.888 46.8669 100.997 47.3438C100.042 47.8596 99.0464 48.2961 98.0202 48.6489C96.9861 49.0073 95.9279 49.2914 94.8534 49.4991C93.8342 49.6997 92.7981 49.8027 91.7594 49.8067C90.7032 49.8067 89.8574 49.67 89.2219 49.3965C88.5873 49.1222 88.2692 48.7514 88.2692 48.2816C88.2692 47.9687 88.4304 47.6365 88.753 47.2851C89.0755 46.9327 89.5401 46.5909 90.1466 46.2587C90.4232 46.1022 90.7126 45.9697 91.0117 45.8625C91.3535 45.7354 91.7006 45.6136 92.0521 45.4961C92.4045 45.3787 92.7516 45.2805 93.0934 45.2025C93.4361 45.1236 93.7341 45.0754 93.9883 45.0561C94.3591 45.0167 94.5449 44.9194 94.5449 44.7625C94.5449 44.5083 94.3591 44.3812 93.9883 44.3812C93.5579 44.3812 92.9812 44.4794 92.2581 44.6749C91.5341 44.8703 90.8697 45.1149 90.2632 45.4076C88.3086 46.2876 87.3304 47.3236 87.3304 48.5165C87.3304 49.3965 87.7222 50.0758 88.5041 50.5544C89.2859 51.0338 90.3999 51.2731 91.847 51.2731C94.3301 51.2731 96.6765 50.8436 98.8853 49.9829C101.095 49.1222 103.03 47.8907 104.692 46.2876C105.188 45.8195 105.613 45.2812 105.953 44.6898C106.266 44.1323 106.422 43.638 106.422 43.2085C106.422 42.7589 106.31 42.3285 106.085 41.9183C105.86 41.5072 105.582 41.2048 105.249 41.0085C105.054 40.8913 104.848 40.7933 104.633 40.7157C104.361 40.6221 104.081 40.5486 103.798 40.4957C103.355 40.4106 102.91 40.3372 102.463 40.2757C101.916 40.1969 101.212 40.1092 100.352 40.0119C99.582 39.9166 98.8146 39.804 98.05 39.6745C97.4338 39.5667 96.9447 39.4501 96.5836 39.323C96.2216 39.1959 95.9674 39.0592 95.821 38.9119C95.7493 38.8413 95.6928 38.7567 95.6549 38.6634C95.6171 38.5701 95.5988 38.47 95.601 38.3694C95.601 37.3921 96.95 36.2868 99.6478 35.0562C100.6 34.6122 101.574 34.2156 102.566 33.8677C103.566 33.5144 104.578 33.1966 105.601 32.9149C106.529 32.6572 107.468 32.4419 108.416 32.2699C109.296 32.113 110.049 32.0349 110.675 32.0349C111.984 32.0349 112.64 32.2988 112.64 32.8264C112.64 33.1595 112.385 33.56 111.878 34.029C111.369 34.4988 110.675 34.9773 109.795 35.4664C109.522 35.6224 109.233 35.7697 108.93 35.9064C108.627 36.0432 108.334 36.165 108.05 36.2728C107.767 36.3806 107.513 36.4683 107.287 36.5366C107.063 36.605 106.892 36.6392 106.775 36.6392C106.579 36.6392 106.481 36.5901 106.481 36.4928C106.481 36.4534 106.549 36.3753 106.686 36.2579C106.846 36.1228 107.012 35.9956 107.185 35.8766C107.38 35.7399 107.581 35.6084 107.786 35.4804C107.95 35.3758 108.122 35.2829 108.3 35.2026C108.527 35.0946 108.757 34.9918 108.989 34.8941C109.154 34.8257 109.277 34.767 109.355 34.7188C109.405 34.6931 109.45 34.6583 109.487 34.6162C109.498 34.5881 109.503 34.5579 109.501 34.5277C109.501 34.4304 109.423 34.3813 109.267 34.3813C109.052 34.3813 108.759 34.4593 108.387 34.6153C107.989 34.7864 107.606 34.9926 107.244 35.2315C106.129 35.9152 105.572 36.5314 105.572 37.0792C105.572 37.3526 105.684 37.5683 105.909 37.7243C106.134 37.8803 106.432 37.9592 106.804 37.9592C107.351 37.9592 107.991 37.783 108.725 37.4315C109.458 37.0792 110.216 36.5901 110.998 35.9651C112.737 34.5768 113.608 33.4032 113.608 32.4451C113.608 31.8395 113.358 31.3995 112.859 31.126C112.361 30.8526 111.574 30.7149 110.499 30.7149ZM115.048 41.1847C115.808 41.1084 116.436 41.1119 116.925 41.0821C117.413 41.0532 117.765 41.0164 117.981 41.0085C118.333 40.9971 118.508 40.9305 118.508 40.7745C118.508 40.5992 118.303 40.5106 117.893 40.5106C117.599 40.5106 117.203 40.515 116.705 40.5247C116.25 40.5324 115.795 40.5569 115.341 40.5983C115.497 40.423 115.708 40.1583 115.972 39.8068C116.235 39.4545 116.511 39.117 116.778 38.7804C117.038 38.4526 117.233 38.1739 117.379 37.9592C117.527 37.7444 117.644 37.563 117.732 37.4157C117.819 37.2694 117.878 37.1475 117.908 37.0494C117.937 36.953 117.952 36.8443 117.952 36.7268C117.958 36.5903 117.916 36.4559 117.834 36.3464C117.8 36.3005 117.756 36.2632 117.705 36.2376C117.654 36.212 117.598 36.1988 117.541 36.1992C117.307 36.1992 117.051 36.42 116.719 36.8153C115.741 37.9846 114.96 38.8585 114.433 39.4843C113.904 40.1092 113.592 40.4808 113.494 40.5983L112.98 40.657C112.79 40.6783 112.6 40.6929 112.409 40.7008C112.154 40.7138 111.9 40.7334 111.646 40.7596C111.353 40.7885 111.001 40.8069 110.591 40.8332C110.082 40.8656 109.647 40.9059 109.286 40.9357C108.924 40.9647 108.607 41.0129 108.332 41.0383L107.687 41.097C107.373 41.1251 107.218 41.2241 107.218 41.3608C107.218 41.5169 107.364 41.5957 107.658 41.5957H108.626C108.899 41.5957 109.212 41.5861 109.564 41.5659L110.84 41.4932C111.338 41.4634 111.988 41.4292 112.79 41.3898C112.418 41.8596 112.096 42.2601 111.822 42.5923C110.426 44.2883 109.083 45.9353 108.142 47.9451C107.78 48.7164 107.599 49.3177 107.599 49.748C107.599 50.4326 108.03 50.7744 108.89 50.7744C109.124 50.7744 109.286 50.7551 109.373 50.7157C109.414 50.6997 109.449 50.6713 109.473 50.6345C109.496 50.5977 109.508 50.5543 109.506 50.5106C109.506 50.3545 109.398 50.2765 109.183 50.2765C108.753 50.2765 108.537 50.1494 108.537 49.8953C108.537 49.7191 108.684 49.3816 108.977 48.8829C109.271 48.3842 109.686 47.7505 110.238 46.9914C110.312 46.8906 110.728 46.3656 111.47 45.4076C112.56 44.0063 113.655 42.6085 114.755 41.2145L115.048 41.1847ZM109.476 50.7157C109.828 50.7157 110.224 50.5842 110.664 50.3791C111.104 50.1731 111.661 49.8462 112.335 49.3965C113.01 48.9469 113.826 48.3404 114.784 47.5778C115.95 46.6449 117.103 45.6968 118.244 44.7336C117.747 45.2748 117.268 45.8323 116.808 46.4051C116.49 46.8007 116.191 47.2117 115.913 47.6365C115.689 47.9889 115.537 48.3114 115.459 48.6042C115.38 48.901 115.341 49.2069 115.341 49.514C115.341 49.7875 115.425 50.0171 115.59 50.2029C115.757 50.3887 115.967 50.4816 116.221 50.4816C116.632 50.4816 117.13 50.2853 117.717 49.8944C118.303 49.5035 119.037 48.8882 119.917 48.0476C119.701 48.4771 119.545 48.8294 119.447 49.1029C119.355 49.3469 119.306 49.6048 119.301 49.8655C119.301 50.4711 119.701 50.7744 120.503 50.7744C120.796 50.7744 120.991 50.7551 121.089 50.7157C121.187 50.6771 121.236 50.6087 121.236 50.5106C121.236 50.3545 121.129 50.2765 120.913 50.2765C120.464 50.2765 120.239 50.1687 120.239 49.954C120.239 49.7778 120.322 49.5333 120.488 49.2204C120.655 48.9075 120.875 48.5849 121.148 48.2527C121.708 47.5709 122.27 46.8914 122.835 46.214C123.235 45.7354 123.533 45.3734 123.729 45.1289C123.858 44.9656 123.99 44.8043 124.125 44.6451C124.176 44.5848 124.23 44.5263 124.286 44.4698C124.56 44.1954 124.696 43.9518 124.696 43.7361C124.696 43.5994 124.633 43.4627 124.506 43.3259C124.379 43.1892 124.247 43.1208 124.11 43.1208C123.947 43.1228 123.789 43.1739 123.656 43.2672C123.509 43.3645 123.333 43.5451 123.113 43.7949C122.903 44.0342 122.634 44.3181 122.321 44.66L121.368 45.7012C121.046 46.0527 120.737 46.3849 120.444 46.6987C120.151 47.0107 119.918 47.257 119.741 47.4314C118.862 48.293 118.221 48.8777 117.819 49.1914C117.419 49.5035 117.101 49.6604 116.867 49.6604C116.71 49.6604 116.632 49.5815 116.632 49.4255C116.632 49.0933 116.867 48.5796 117.335 47.8863C117.804 47.1922 118.463 46.3875 119.329 45.4961C119.831 44.9808 120.19 44.582 120.386 44.2787C120.581 43.9754 120.679 43.7072 120.679 43.4723C120.679 43.3163 120.6 43.1892 120.444 43.091C120.287 42.9938 120.082 42.9447 119.828 42.9447C119.633 42.9447 119.422 43.0183 119.198 43.1638C118.973 43.311 118.634 43.5985 118.186 44.0298C117.638 44.5557 116.891 45.2078 115.943 45.98C114.994 46.7513 113.791 47.7005 112.321 48.8093C111.718 49.2651 111.191 49.592 110.752 49.8067C110.32 50.0167 109.861 50.1648 109.388 50.2467C109.192 50.2818 109.095 50.3931 109.095 50.5693C109.095 50.6867 109.144 50.7446 109.242 50.7446C109.302 50.7444 109.361 50.7347 109.417 50.7157H109.476ZM131.911 50.7455C132.088 50.7455 132.175 50.6377 132.175 50.4816C132.175 50.3449 132.087 50.2765 131.911 50.2765C131.461 50.2765 131.237 50.1591 131.237 49.9242C131.237 49.8067 131.32 49.6016 131.486 49.308C131.652 49.0153 131.923 48.6156 132.292 48.1063C132.489 47.8338 132.806 47.4218 133.246 46.874C133.685 46.3271 134.194 45.7056 134.771 45.0123C135.347 44.3181 135.972 43.5749 136.647 42.7834C137.321 41.991 137.992 41.2092 138.656 40.437C139.321 39.6657 139.961 38.9268 140.577 38.223C141.193 37.5192 141.736 36.9135 142.204 36.4043C142.635 35.9362 142.977 35.5637 143.231 35.2902C143.485 35.0168 143.676 34.8012 143.803 34.6451C143.93 34.4891 144.008 34.3664 144.038 34.2788C144.067 34.1911 144.082 34.0973 144.082 34C144.082 33.8826 144.027 33.7704 143.92 33.6626C143.813 33.5548 143.71 33.5013 143.612 33.5013C143.417 33.5013 142.991 33.795 142.337 34.3813C141.682 34.9677 140.899 35.7495 139.99 36.7268C138.97 37.8299 137.973 38.9544 137 40.0996C135.892 41.3972 134.812 42.7171 133.758 44.0587C133.72 43.3356 133.28 42.9736 132.439 42.9736C132.185 42.9736 131.92 43.0174 131.647 43.1051C131.323 43.2168 131.013 43.3647 130.723 43.5459C130.381 43.751 129.981 44.0298 129.52 44.3812C129.061 44.7336 128.518 45.1718 127.894 45.7012C127.035 46.4336 126.165 47.1525 125.284 47.8574C124.697 48.3267 124.096 48.7763 123.48 49.2055C122.981 49.5473 122.551 49.7927 122.189 49.9391C121.844 50.0789 121.485 50.182 121.118 50.2467C120.923 50.2818 120.826 50.3931 120.826 50.5693C120.826 50.6867 120.884 50.7446 121.002 50.7446C121.052 50.7463 121.102 50.7364 121.148 50.7157H121.207C121.583 50.7157 121.911 50.5789 122.204 50.4816C122.559 50.3539 122.898 50.1866 123.216 49.9829C123.597 49.748 124.062 49.4211 124.609 49.0012C125.156 48.5805 125.889 48.0178 126.809 47.314C126.398 48.1747 126.192 48.8689 126.192 49.3965C126.192 49.748 126.285 50.0276 126.471 50.2318C126.657 50.4369 126.916 50.5404 127.248 50.5404C127.659 50.5404 128.23 50.266 128.964 49.7191C129.697 49.1713 130.474 48.4482 131.295 47.5489C130.963 48.116 130.723 48.5744 130.577 48.9267C130.43 49.2791 130.357 49.592 130.357 49.8655C130.353 49.9919 130.378 50.1175 130.432 50.2322C130.485 50.3468 130.565 50.4473 130.664 50.5255C130.869 50.692 131.138 50.7744 131.472 50.7744C131.666 50.7744 131.801 50.7455 131.882 50.7455H131.911ZM132.937 43.6774C133.211 43.6774 133.348 43.8247 133.348 44.1174C133.348 44.3909 133.089 44.8554 132.571 45.511C132.053 46.1649 131.331 46.9301 130.415 47.8127C129.689 48.5139 129.116 49.0249 128.685 49.3378C128.255 49.6507 127.923 49.8067 127.688 49.8067C127.492 49.8067 127.395 49.7095 127.395 49.514C127.395 49.2791 127.502 48.9706 127.718 48.5902C127.932 48.2089 128.206 47.8031 128.539 47.3727C128.871 46.9432 129.247 46.5076 129.668 46.0676C130.063 45.6512 130.479 45.2548 130.914 44.88C131.324 44.5285 131.711 44.2401 132.072 44.0149C132.434 43.7905 132.722 43.6774 132.937 43.6774ZM139.477 50.7455C139.653 50.7455 139.741 50.6666 139.741 50.5106C139.741 50.3545 139.653 50.2765 139.477 50.2765C139.165 50.2765 138.959 50.252 138.861 50.2029C138.764 50.1538 138.715 50.0513 138.715 49.8944C138.715 49.8164 138.749 49.7094 138.817 49.5727C138.886 49.4351 139.003 49.2502 139.169 49.0153C139.335 48.7804 139.565 48.4824 139.859 48.1212C140.151 47.7593 140.523 47.314 140.973 46.7863C141.414 46.2694 141.854 45.7513 142.293 45.2323C142.606 44.8607 142.84 44.5714 142.997 44.3663C143.153 44.1612 143.246 44.0096 143.275 43.9123C143.304 43.8141 143.319 43.7072 143.319 43.5898C143.319 43.4145 143.255 43.2672 143.128 43.1498C143.015 43.0383 142.862 42.9754 142.703 42.9745C142.429 42.9745 142.195 43.0227 141.999 43.12C141.804 43.2181 141.596 43.382 141.384 43.6196C141.207 43.8137 141.021 43.9994 140.826 44.1761C140.572 44.411 140.215 44.7143 139.756 45.0851C139.297 45.4567 138.73 45.9116 138.055 46.4489C137.381 46.9871 136.571 47.6129 135.636 48.3404C134.811 48.982 134.155 49.4447 133.656 49.7191C133.168 49.985 132.637 50.1635 132.087 50.2467C131.89 50.2774 131.793 50.3931 131.793 50.5693C131.793 50.6867 131.852 50.7446 131.969 50.7446H132.028C132.059 50.7411 132.089 50.7312 132.117 50.7157H132.175C132.471 50.7157 132.762 50.6087 133.055 50.5106C133.382 50.3971 133.697 50.2496 133.993 50.0706C134.325 49.8751 134.712 49.6209 135.152 49.308C135.674 48.9285 136.187 48.5375 136.691 48.1353C137.469 47.5243 138.192 46.9573 138.846 46.42C139.502 45.8818 140.181 45.32 140.885 44.7336C140.37 45.3443 139.866 45.965 139.375 46.5953C139.03 47.034 138.707 47.4891 138.406 47.9591C138.197 48.2828 138.02 48.6266 137.879 48.9855C137.779 49.2382 137.725 49.5064 137.717 49.7778C137.717 50.0706 137.831 50.3107 138.055 50.4965C138.279 50.6815 138.558 50.7744 138.891 50.7744H139.184C139.263 50.7801 139.343 50.7703 139.419 50.7455H139.477ZM146.311 37.783C146.076 37.783 145.841 37.8268 145.607 37.9145C145.372 38.0021 145.162 38.1161 144.976 38.2519C144.798 38.3805 144.644 38.5396 144.522 38.7217C144.404 38.897 144.346 39.0732 144.346 39.2494C144.346 39.7183 144.57 39.9532 145.02 39.9532C145.274 39.9532 145.518 39.9138 145.753 39.8357C145.983 39.76 146.2 39.6514 146.398 39.5132C146.594 39.3765 146.751 39.2301 146.867 39.0732C146.98 38.9311 147.042 38.7557 147.043 38.5745C147.043 38.3404 146.975 38.1494 146.838 38.003C146.771 37.9307 146.689 37.8737 146.598 37.8358C146.507 37.7978 146.409 37.7798 146.311 37.783Z" fill="white"/>
<path fill-rule="evenodd" clip-rule="evenodd" d="M28.8638 0.88964C29.4282 2.05012 29.7832 3.37888 29.9287 4.87769C29.9699 5.30542 29.9962 5.7349 30.0058 6.16613C30.0164 6.59737 30.0199 7.2451 30.0164 8.1102C30.0137 9.1357 30.0181 9.89825 30.0313 10.3978C30.0435 10.8957 30.0725 11.3716 30.1163 11.8265C30.2153 12.8433 30.4073 13.8241 30.693 14.7689C30.9788 15.7129 31.3399 16.5561 31.7764 17.2967L31.8202 16.7656C31.6558 16.4133 31.5001 16.057 31.353 15.6971C31.2411 15.4213 31.1425 15.1402 31.0576 14.8548C30.9812 14.5944 30.9198 14.3299 30.8736 14.0625C30.823 13.7572 30.7836 13.4503 30.7552 13.1422C30.7289 12.8748 30.7062 12.6005 30.6869 12.3182C30.6661 12.0025 30.6533 11.6863 30.6483 11.3699C30.6306 10.3579 30.6253 9.34579 30.6325 8.3337C30.6273 7.63251 30.6203 7.11275 30.6115 6.7753C30.6027 6.4396 30.5817 6.09689 30.5475 5.74892C30.4472 4.75176 30.2481 3.76701 29.9533 2.80916C29.6509 1.81259 29.3029 1.00884 28.912 0.398804L28.8638 0.88964Z" fill="#009035"/>
<path fill-rule="evenodd" clip-rule="evenodd" d="M40.0822 1.26213C40.2154 2.5462 40.0944 3.91616 39.7184 5.37376C39.6109 5.79066 39.4881 6.20347 39.3503 6.61137C39.1396 7.2241 38.9214 7.83418 38.6956 8.44149C38.4299 9.15625 38.1737 9.87445 37.9269 10.5959C37.7742 11.0485 37.6377 11.5063 37.5176 11.9685C37.2656 12.938 37.11 13.9301 37.053 14.9302C36.9995 15.9154 37.0504 16.8304 37.2064 17.6762L37.429 17.1915C37.3913 16.7384 37.3677 16.3501 37.3563 16.0284C37.3466 15.7059 37.3493 15.4087 37.3668 15.1353C37.3843 14.8627 37.4176 14.5927 37.465 14.3289C37.5132 14.0625 37.5807 13.7609 37.6683 13.4226C37.8111 12.8482 37.9798 12.2805 38.174 11.7213C38.5037 10.7642 38.845 9.81106 39.1978 8.86221C39.4336 8.20134 39.6045 7.7105 39.7114 7.39145C40.1382 6.11404 40.3865 4.78382 40.4494 3.43847C40.5055 2.39807 40.4538 1.5242 40.2943 0.817749L40.0822 1.26213Z" fill="#9EDBF4"/>
<path fill-rule="evenodd" clip-rule="evenodd" d="M50.2074 5.0232C49.8936 6.27483 49.3107 7.5212 48.4597 8.76232C48.216 9.1173 47.9601 9.46264 47.691 9.79921C47.421 10.1367 47.0073 10.6345 46.449 11.2954C45.9551 11.8762 45.4689 12.4635 44.9905 13.0571C44.6793 13.4463 44.3945 13.8293 44.1368 14.2071C43.5683 15.0316 43.0827 15.9104 42.6871 16.8304C42.3183 17.6734 42.0514 18.5573 41.8921 19.4634L42.2664 19.0848C42.3864 18.6457 42.496 18.2723 42.5959 17.9664C42.6967 17.6596 42.801 17.3818 42.9115 17.1311C43.021 16.8804 43.1437 16.6385 43.2796 16.4062C43.4154 16.1731 43.5828 15.9128 43.7792 15.6244C43.9326 15.4026 44.0912 15.1783 44.2569 14.9495C44.4234 14.7216 44.6162 14.4709 44.8371 14.1983C45.4742 13.4119 46.1208 12.6332 46.7768 11.8625C47.2238 11.3217 47.5534 10.9194 47.7628 10.6555C47.9723 10.3926 48.1757 10.1156 48.3738 9.82814C48.9382 8.99977 49.4186 8.11715 49.8077 7.19339C50.217 6.23539 50.4677 5.39658 50.5597 4.67786L50.2074 5.0232Z" fill="#008BD0"/>
<path fill-rule="evenodd" clip-rule="evenodd" d="M18.0848 4.16334C19.0121 5.06174 19.7992 6.18891 20.4487 7.5466C20.6345 7.93489 20.8054 8.33019 20.9623 8.73162C21.1201 9.13393 21.3444 9.74047 21.6372 10.5547C21.9852 11.5198 22.2507 12.235 22.4331 12.6986C22.6154 13.1632 22.8047 13.6014 23.0028 14.0134C23.4327 14.918 23.9509 15.7779 24.5498 16.5806C25.1414 17.3695 25.769 18.0391 26.4325 18.586L26.2923 18.0715C26.0173 17.797 25.7493 17.5155 25.4885 17.2275C25.2888 17.0065 25.0999 16.776 24.9223 16.5368C24.7616 16.3181 24.6135 16.0905 24.4788 15.8549C24.3267 15.5855 24.1843 15.3107 24.0519 15.031C23.9334 14.7822 23.8182 14.5318 23.7066 14.2798C23.5789 13.9904 23.4585 13.6979 23.3455 13.4025C22.9828 12.4572 22.6316 11.5076 22.2919 10.5539C22.1123 10.0666 21.9282 9.58102 21.7397 9.09712C21.617 8.78421 21.4794 8.46955 21.3278 8.15401C20.8928 7.25129 20.3693 6.39397 19.765 5.59465C19.1392 4.76198 18.5379 4.12565 17.9612 3.68652L18.0839 4.16421L18.0848 4.16334Z" fill="#FFEC00"/>
<path fill-rule="evenodd" clip-rule="evenodd" d="M9.08917 10.6371C10.2672 11.1639 11.3935 11.9545 12.4681 13.0081C12.7748 13.3096 13.0711 13.6216 13.3559 13.9459C13.6408 14.2702 14.0598 14.7637 14.6128 15.4272C15.2702 16.216 15.7637 16.7971 16.0941 17.1714C16.4246 17.5439 16.7524 17.891 17.0784 18.2109C17.7923 18.9138 18.5738 19.5444 19.4116 20.0936C20.1775 20.6033 21.0014 21.02 21.8658 21.3347L21.5582 20.9C21.2063 20.7351 20.8582 20.5621 20.5143 20.3811C20.2509 20.2417 19.9943 20.0896 19.7456 19.9253C19.5199 19.7752 19.3031 19.6122 19.0961 19.4371C18.861 19.2359 18.6333 19.0263 18.4133 18.8087C18.2166 18.6156 18.0226 18.4199 17.8313 18.2214C17.6123 17.993 17.3989 17.7592 17.1915 17.5202C16.5275 16.7562 15.873 15.984 15.2281 15.2037C14.8928 14.8071 14.5539 14.4135 14.2114 14.023C13.9836 13.7664 13.7468 13.5179 13.5014 13.278C12.7837 12.5785 11.9983 11.952 11.1568 11.4076C10.2847 10.8387 9.502 10.4461 8.80957 10.2313L9.08917 10.6371Z" fill="#F07C00"/>
<path fill-rule="evenodd" clip-rule="evenodd" d="M2.6944 19.5511C3.98197 19.6423 5.30986 19.9999 6.6807 20.6231C7.07161 20.801 7.4564 20.9938 7.83504 21.2007C8.21369 21.4075 8.7764 21.7283 9.52404 22.1631C10.1817 22.5486 10.8444 22.9255 11.5119 23.2937C11.9502 23.5321 12.3762 23.746 12.7925 23.9353C13.7225 24.3578 14.6682 24.6821 15.6288 24.9065C16.5895 25.1317 17.5001 25.2395 18.3591 25.2325L17.9209 24.9293C17.5339 24.8955 17.1478 24.8522 16.763 24.7995C16.4681 24.7585 16.1753 24.7032 15.8856 24.6339C15.6219 24.5699 15.362 24.4909 15.1073 24.3972C14.8177 24.2884 14.532 24.1691 14.251 24.0396C14 23.9259 13.7508 23.8084 13.5033 23.6873C13.2195 23.5473 12.9392 23.4003 12.6628 23.2464C11.7772 22.7557 10.8977 22.254 10.0245 21.7415C9.57396 21.4838 9.12109 21.2302 8.66596 20.9807C8.36436 20.8174 8.05711 20.6648 7.74476 20.5231C6.83091 20.1114 5.87846 19.7914 4.90142 19.5678C3.88644 19.3311 3.01695 19.2303 2.29297 19.2645L2.6944 19.5511Z" fill="#E30016"/>
<path fill-rule="evenodd" clip-rule="evenodd" d="M58.5411 11.6477C57.818 12.717 56.8442 13.6882 55.6197 14.5629C55.2691 14.8136 54.9106 15.0503 54.5425 15.2746C54.1744 15.499 53.6152 15.8268 52.8649 16.2563C52.2019 16.6327 51.5439 17.0178 50.891 17.4115C50.4659 17.6718 50.0671 17.9348 49.6955 18.2004C48.8793 18.7812 48.1224 19.4412 47.4359 20.1707C46.761 20.8903 46.2114 21.6248 45.7881 22.3725L46.2702 22.1446C46.5331 21.773 46.7636 21.4609 46.9626 21.2067C47.1616 20.9526 47.3553 20.7282 47.5437 20.5301C47.7312 20.3339 47.9296 20.1483 48.138 19.9744C48.3457 19.8017 48.5911 19.615 48.8751 19.4117C49.0942 19.2548 49.3204 19.0979 49.5553 18.9401C49.7893 18.7824 50.0566 18.6132 50.3572 18.4326C51.2245 17.9111 52.0981 17.4004 52.978 16.9005C53.5836 16.5456 54.0298 16.28 54.3172 16.1038C54.6047 15.9285 54.8905 15.7383 55.1745 15.535C55.988 14.9496 56.7414 14.2849 57.4235 13.5506C58.1353 12.7898 58.6576 12.0868 58.9898 11.4435L58.5411 11.6477Z" fill="#A4027C"/>
</g>
<defs>
<linearGradient id="paint0_linear_4_573" x1="16.202" y1="18.3047" x2="49.3352" y2="18.3047" gradientUnits="userSpaceOnUse">
<stop stop-color="white"/>
<stop offset="0.1" stop-color="#FFEC00"/>
<stop offset="1" stop-color="#F07C00"/>
</linearGradient>
<clipPath id="clip0_4_573">
<rect width="220" height="59.6016" fill="white"/>
</clipPath>
</defs>
</svg>
