<svg width="16" height="21" viewBox="0 0 16 21" fill="none" xmlns="http://www.w3.org/2000/svg">
<path d="M12 0.101562C12.1326 0.101563 12.2598 0.154241 12.3536 0.248009C12.4473 0.341777 12.5 0.468954 12.5 0.601562V1.10156H14C14.3729 1.10158 14.7324 1.24048 15.0084 1.49118C15.2844 1.74188 15.4572 2.0864 15.493 2.45756L15.5 2.60156V18.6016C15.5 18.9744 15.3611 19.334 15.1104 19.61C14.8597 19.886 14.5152 20.0588 14.144 20.0946L14 20.1016H2C1.62712 20.1015 1.26761 19.9626 0.991581 19.7119C0.715553 19.4612 0.542797 19.1167 0.507 18.7456L0.5 18.6016V2.60156C0.500018 2.22868 0.63892 1.86917 0.889619 1.59314C1.14032 1.31712 1.48484 1.14436 1.856 1.10856L2 1.10156H3.5V0.601562C3.49996 0.484537 3.54097 0.371205 3.61589 0.281304C3.69081 0.191402 3.79489 0.130627 3.91 0.109563L4 0.101562H12ZM3.5 2.10156H2C1.88297 2.10152 1.76964 2.14253 1.67974 2.21745C1.58984 2.29237 1.52906 2.39645 1.508 2.51156L1.5 2.60156V18.6016C1.49996 18.7186 1.54097 18.8319 1.61589 18.9218C1.69081 19.0117 1.79489 19.0725 1.91 19.0936L2 19.1016H14C14.117 19.1016 14.2304 19.0606 14.3203 18.9857C14.4102 18.9108 14.4709 18.8067 14.492 18.6916L14.5 18.6016V2.60156C14.5 2.48454 14.459 2.37121 14.3841 2.2813C14.3092 2.1914 14.2051 2.13063 14.09 2.10956L14 2.10156H12.5V2.60156C12.5 2.71859 12.459 2.83192 12.3841 2.92182C12.3092 3.01172 12.2051 3.0725 12.09 3.09356L12 3.10156H4C3.86739 3.10156 3.74021 3.04888 3.64645 2.95512C3.55268 2.86135 3.5 2.73417 3.5 2.60156V2.10156ZM12.5 14.6016C12.6326 14.6016 12.7598 14.6542 12.8536 14.748C12.9473 14.8418 13 14.969 13 15.1016C13 15.2342 12.9473 15.3613 12.8536 15.4551C12.7598 15.5489 12.6326 15.6016 12.5 15.6016H3.5C3.36739 15.6016 3.24021 15.5489 3.14645 15.4551C3.05268 15.3613 3 15.2342 3 15.1016C3 14.969 3.05268 14.8418 3.14645 14.748C3.24021 14.6542 3.36739 14.6016 3.5 14.6016H12.5ZM12.5 10.6016C12.6326 10.6016 12.7598 10.6542 12.8536 10.748C12.9473 10.8418 13 10.969 13 11.1016C13 11.2342 12.9473 11.3613 12.8536 11.4551C12.7598 11.5489 12.6326 11.6016 12.5 11.6016H3.5C3.36739 11.6016 3.24021 11.5489 3.14645 11.4551C3.05268 11.3613 3 11.2342 3 11.1016C3 10.969 3.05268 10.8418 3.14645 10.748C3.24021 10.6542 3.36739 10.6016 3.5 10.6016H12.5ZM12.5 6.60156C12.6326 6.60156 12.7598 6.65424 12.8536 6.74801C12.9473 6.84178 13 6.96895 13 7.10156C13 7.23417 12.9473 7.36135 12.8536 7.45512C12.7598 7.54888 12.6326 7.60156 12.5 7.60156H3.5C3.36739 7.60156 3.24021 7.54888 3.14645 7.45512C3.05268 7.36135 3 7.23417 3 7.10156C3 6.96895 3.05268 6.84178 3.14645 6.74801C3.24021 6.65424 3.36739 6.60156 3.5 6.60156H12.5ZM11.5 1.10156H4.5V2.10156H11.5V1.10156Z" fill="white"/>
</svg>
