<svg width="26" height="24" viewBox="0 0 26 24" fill="none" xmlns="http://www.w3.org/2000/svg">
<path d="M13.479 1.71718C13.3311 1.60176 13.1488 1.53906 12.9612 1.53906C12.7736 1.53906 12.5913 1.60176 12.4434 1.71718L0.46875 11.0552L1.50433 12.3649L2.96875 11.2231V21.539C2.96965 21.9808 3.14554 22.4042 3.4579 22.7165C3.77027 23.0289 4.19367 23.2048 4.63542 23.2057H21.3021C21.7439 23.2049 22.1673 23.029 22.4797 22.7166C22.7921 22.4042 22.9679 21.9808 22.9687 21.539V11.2307L24.4332 12.3723L25.4687 11.0625L13.479 1.71718ZM14.6354 21.539H11.3021V14.8723H14.6354V21.539ZM16.3021 21.539V14.8723C16.3016 14.4305 16.1258 14.0068 15.8134 13.6944C15.5009 13.3819 15.0773 13.2062 14.6354 13.2057H11.3021C10.8602 13.2061 10.4365 13.3819 10.1241 13.6943C9.81159 14.0068 9.63586 14.4305 9.63542 14.8723V21.539H4.63542V9.9236L12.9687 3.43193L21.3021 9.93235V21.539H16.3021Z" fill="white"/>
</svg>
